<svg width="144" height="36" viewBox="0 0 144 36" fill="none" xmlns="http://www.w3.org/2000/svg">
<path d="M24.656 35C24.1867 35 23.7813 34.808 23.44 34.424C22.6293 33.4853 21.6267 32.3333 20.432 30.968C19.28 29.56 18.0427 28.0667 16.72 26.488C15.44 24.9093 14.16 23.3733 12.88 21.88C11.6427 20.344 10.5333 18.9787 9.552 17.784C8.272 18.9787 7.09867 20.0667 6.032 21.048C4.96533 21.9867 4.112 22.7547 3.472 23.352V33.4C3.472 33.8267 3.32267 34.2107 3.024 34.552C2.72533 34.8507 2.34133 35 1.872 35C1.44533 35 1.06133 34.8507 0.72 34.552C0.421334 34.2107 0.272 33.8267 0.272 33.4V2.36C0.272 1.89066 0.421334 1.50667 0.72 1.208C1.06133 0.909332 1.44533 0.759998 1.872 0.759998C2.34133 0.759998 2.72533 0.909332 3.024 1.208C3.32267 1.50667 3.472 1.89066 3.472 2.36V19.064C4.66667 17.9547 6.05333 16.6747 7.632 15.224C9.25333 13.7307 10.9387 12.1733 12.688 10.552C14.4373 8.888 16.144 7.26666 17.808 5.688C19.472 4.06667 20.944 2.59467 22.224 1.272C22.5653 0.930665 22.9493 0.759998 23.376 0.759998C23.8027 0.759998 24.1653 0.930665 24.464 1.272C24.8053 1.57066 24.976 1.93333 24.976 2.36C24.976 2.70133 24.8267 3.064 24.528 3.448C22.864 5.19733 20.88 7.18133 18.576 9.4C16.3147 11.576 14.096 13.6667 11.92 15.672C12.9013 16.824 14.0107 18.168 15.248 19.704C16.528 21.24 17.8293 22.7973 19.152 24.376C20.4747 25.9547 21.712 27.448 22.864 28.856C24.0587 30.264 25.0613 31.4373 25.872 32.376C26.128 32.632 26.256 32.9733 26.256 33.4C26.256 33.784 26.1067 34.1467 25.808 34.488C25.5093 34.8293 25.1253 35 24.656 35ZM38.329 21.304C38.329 24.8453 39.3317 27.576 41.337 29.496C43.385 31.416 46.009 32.376 49.209 32.376C52.7503 32.376 55.481 31.416 57.401 29.496C59.3637 27.5333 60.345 24.7387 60.345 21.112V2.36C60.345 1.89066 60.4943 1.50667 60.793 1.208C61.1343 0.909332 61.5183 0.759998 61.945 0.759998C62.4143 0.759998 62.7983 0.909332 63.097 1.208C63.3957 1.50667 63.545 1.89066 63.545 2.36V21.112C63.545 25.7627 62.2863 29.3467 59.769 31.864C57.2943 34.3387 53.7743 35.576 49.209 35.576C45.0703 35.576 41.6783 34.3387 39.033 31.864C36.4303 29.3893 35.129 25.8693 35.129 21.304V2.36C35.129 1.89066 35.2783 1.50667 35.577 1.208C35.9183 0.909332 36.3023 0.759998 36.729 0.759998C37.1983 0.759998 37.5823 0.909332 37.881 1.208C38.1797 1.50667 38.329 1.89066 38.329 2.36V21.304ZM100.167 34.36C98.7158 32.3973 97.0305 30.2 95.1105 27.768C93.2332 25.336 91.2918 22.8613 89.2865 20.344C87.2812 17.784 85.3398 15.3093 83.4625 12.92C81.6278 10.5307 79.9852 8.41866 78.5345 6.584V33.4C78.5345 33.8267 78.3852 34.2107 78.0865 34.552C77.7878 34.8507 77.4038 35 76.9345 35C76.5078 35 76.1238 34.8507 75.7825 34.552C75.4838 34.2107 75.3345 33.8267 75.3345 33.4V2.36C75.3345 1.89066 75.4838 1.50667 75.7825 1.208C76.1238 0.909332 76.4865 0.759998 76.8705 0.759998C77.7238 0.759998 78.2998 0.973331 78.5985 1.4C79.6652 2.808 81.0518 4.62133 82.7585 6.84C84.4652 9.016 86.3212 11.4053 88.3265 14.008C90.3745 16.568 92.4225 19.1707 94.4705 21.816C96.5612 24.4187 98.4812 26.872 100.231 29.176V2.36C100.231 1.89066 100.38 1.50667 100.679 1.208C101.02 0.909332 101.404 0.759998 101.831 0.759998C102.3 0.759998 102.684 0.909332 102.983 1.208C103.281 1.50667 103.431 1.89066 103.431 2.36V33.4C103.431 33.8267 103.281 34.2107 102.983 34.552C102.684 34.8507 102.321 35 101.895 35C101.041 35 100.465 34.7867 100.167 34.36ZM142.007 35C141.282 35 140.792 34.6587 140.536 33.976C140.109 32.824 139.597 31.544 139 30.136C138.402 28.728 137.762 27.256 137.08 25.72H119.032C118.434 27.256 117.858 28.728 117.304 30.136C116.792 31.5013 116.322 32.76 115.896 33.912C115.768 34.2533 115.554 34.5307 115.256 34.744C114.957 34.9147 114.637 35 114.296 35C113.912 35 113.549 34.8507 113.208 34.552C112.909 34.2107 112.76 33.8053 112.76 33.336C112.76 33.208 112.781 33.0373 112.824 32.824C112.909 32.568 113.101 32.0773 113.4 31.352C114.125 29.432 114.978 27.2347 115.96 24.76C116.984 22.2853 118.072 19.704 119.224 17.016C120.376 14.328 121.549 11.6187 122.744 8.888C123.938 6.15733 125.09 3.576 126.2 1.144C126.498 0.503998 127.01 0.183998 127.736 0.183998H127.992C128.76 0.183998 129.272 0.482665 129.528 1.08C130.68 3.55466 131.896 6.22133 133.176 9.08C134.498 11.9387 135.778 14.776 137.016 17.592C138.253 20.3653 139.384 22.968 140.408 25.4C141.432 27.7893 142.264 29.7733 142.904 31.352C143.245 32.12 143.437 32.632 143.479 32.888C143.565 33.144 143.608 33.3147 143.608 33.4C143.608 33.8267 143.437 34.2107 143.096 34.552C142.797 34.8507 142.434 35 142.007 35ZM135.736 22.52C134.498 19.6613 133.197 16.7387 131.832 13.752C130.466 10.7653 129.144 7.928 127.864 5.24C126.669 7.97066 125.41 10.8293 124.088 13.816C122.808 16.76 121.57 19.6613 120.376 22.52H135.736Z" fill="black"/>
</svg>
